HIERARCHY
ROOT mixamorig:Hips
{
	OFFSET -0.000008 104.274872 1.554316
	CHANNELS 6 Xposition Yposition Zposition Xrotation Yrotation Zrotation
	JOINT mixamorig:Spine
	{
		OFFSET -0.000005 10.181595 0.131519
		CHANNELS 6 Xposition Yposition Zposition Xrotation Yrotation Zrotation
		JOINT mixamorig:Spine1
		{
			OFFSET -0.000000 9.893959 -1.470707
			CHANNELS 6 Xposition Yposition Zposition Xrotation Yrotation Zrotation
			JOINT mixamorig:Spine2
			{
				OFFSET -0.000000 9.220757 -1.370641
				CHANNELS 6 Xposition Yposition Zposition Xrotation Yrotation Zrotation
				JOINT mixamorig:Neck
				{
					OFFSET 0.000001 16.740417 -2.049036
					CHANNELS 6 Xposition Yposition Zposition Xrotation Yrotation Zrotation
					JOINT mixamorig:Head
					{
						OFFSET 0.000000 9.617874 1.685006
						CHANNELS 6 Xposition Yposition Zposition Xrotation Yrotation Zrotation
						JOINT mixamorig:HeadTop_End
						{
							OFFSET 0.000002 22.037354 7.501101
							CHANNELS 6 Xposition Yposition Zposition Xrotation Yrotation Zrotation
							End Site
							{
								OFFSET 0.000168 2310.654297 -282.823242
							}
						}
					}
				}
				JOINT mixamorig:RightShoulder
				{
					OFFSET -4.569970 11.014908 -2.160885
					CHANNELS 6 Xposition Yposition Zposition Xrotation Yrotation Zrotation
					JOINT mixamorig:RightArm
					{
						OFFSET -10.592851 -0.524811 -2.232101
						CHANNELS 6 Xposition Yposition Zposition Xrotation Yrotation Zrotation
						JOINT mixamorig:RightForeArm
						{
							OFFSET -27.841511 0.000031 -0.000004
							CHANNELS 6 Xposition Yposition Zposition Xrotation Yrotation Zrotation
							JOINT mixamorig:RightHand
							{
								OFFSET -28.328831 -0.000015 0.000015
								CHANNELS 6 Xposition Yposition Zposition Xrotation Yrotation Zrotation
								JOINT mixamorig:RightHandThumb1
								{
									OFFSET -2.464806 -1.573990 2.681852
									CHANNELS 6 Xposition Yposition Zposition Xrotation Yrotation Zrotation
									JOINT mixamorig:RightHandThumb2
									{
										OFFSET -3.215179 -1.872803 1.924282
										CHANNELS 6 Xposition Yposition Zposition Xrotation Yrotation Zrotation
										JOINT mixamorig:RightHandThumb3
										{
											OFFSET -2.654831 -1.527969 1.512609
											CHANNELS 6 Xposition Yposition Zposition Xrotation Yrotation Zrotation
											JOINT mixamorig:RightHandThumb4
											{
												OFFSET -2.018814 -1.152008 1.108052
												CHANNELS 6 Xposition Yposition Zposition Xrotation Yrotation Zrotation
												End Site
												{
													OFFSET -188.809540 -114.533607 132.431396
												}
											}
										}
									}
								}
								JOINT mixamorig:RightHandIndex1
								{
									OFFSET -9.108284 -0.517868 2.259835
									CHANNELS 6 Xposition Yposition Zposition Xrotation Yrotation Zrotation
									JOINT mixamorig:RightHandIndex2
									{
										OFFSET -3.699989 0.000000 0.001215
										CHANNELS 6 Xposition Yposition Zposition Xrotation Yrotation Zrotation
										JOINT mixamorig:RightHandIndex3
										{
											OFFSET -2.850006 0.000031 -0.000522
											CHANNELS 6 Xposition Yposition Zposition Xrotation Yrotation Zrotation
											JOINT mixamorig:RightHandIndex4
											{
												OFFSET -2.772186 -0.000015 -0.000020
												CHANNELS 6 Xposition Yposition Zposition Xrotation Yrotation Zrotation
												End Site
												{
													OFFSET -277.218445 0.000000 -0.050231
												}
											}
										}
									}
								}
								JOINT mixamorig:RightHandMiddle1
								{
									OFFSET -9.532516 -0.000031 -0.000023
									CHANNELS 6 Xposition Yposition Zposition Xrotation Yrotation Zrotation
									JOINT mixamorig:RightHandMiddle2
									{
										OFFSET -3.700005 -0.000015 0.003713
										CHANNELS 6 Xposition Yposition Zposition Xrotation Yrotation Zrotation
										JOINT mixamorig:RightHandMiddle3
										{
											OFFSET -2.949974 0.000015 -0.002054
											CHANNELS 6 Xposition Yposition Zposition Xrotation Yrotation Zrotation
											JOINT mixamorig:RightHandMiddle4
											{
												OFFSET -2.946640 0.000000 -0.000156
												CHANNELS 6 Xposition Yposition Zposition Xrotation Yrotation Zrotation
												End Site
												{
													OFFSET -294.664337 0.000000 -0.113670
												}
											}
										}
									}
								}
								JOINT mixamorig:RightHandRing1
								{
									OFFSET -9.103600 -0.043076 -1.865134
									CHANNELS 6 Xposition Yposition Zposition Xrotation Yrotation Zrotation
									JOINT mixamorig:RightHandRing2
									{
										OFFSET -3.379288 0.000000 -0.001055
										CHANNELS 6 Xposition Yposition Zposition Xrotation Yrotation Zrotation
										JOINT mixamorig:RightHandRing3
										{
											OFFSET -2.889687 -0.000015 0.000379
											CHANNELS 6 Xposition Yposition Zposition Xrotation Yrotation Zrotation
											JOINT mixamorig:RightHandRing4
											{
												OFFSET -2.638809 -0.000015 0.000941
												CHANNELS 6 Xposition Yposition Zposition Xrotation Yrotation Zrotation
												End Site
												{
													OFFSET -263.880371 0.000000 0.516020
												}
											}
										}
									}
								}
								JOINT mixamorig:RightHandPinky1
								{
									OFFSET -8.076683 -0.486710 -3.806280
									CHANNELS 6 Xposition Yposition Zposition Xrotation Yrotation Zrotation
									JOINT mixamorig:RightHandPinky2
									{
										OFFSET -3.600014 -0.000015 -0.003747
										CHANNELS 6 Xposition Yposition Zposition Xrotation Yrotation Zrotation
										JOINT mixamorig:RightHandPinky3
										{
											OFFSET -2.099983 0.000000 -0.005739
											CHANNELS 6 Xposition Yposition Zposition Xrotation Yrotation Zrotation
											JOINT mixamorig:RightHandPinky4
											{
												OFFSET -2.115768 -0.000031 -0.003680
												CHANNELS 6 Xposition Yposition Zposition Xrotation Yrotation Zrotation
												End Site
												{
													OFFSET -211.577087 0.000000 -0.350686
												}
											}
										}
									}
								}
							}
						}
					}
				}
				JOINT mixamorig:LeftShoulder
				{
					OFFSET 4.570447 11.014725 -2.160855
					CHANNELS 6 Xposition Yposition Zposition Xrotation Yrotation Zrotation
					JOINT mixamorig:LeftArm
					{
						OFFSET 10.592371 -0.524597 -2.232119
						CHANNELS 6 Xposition Yposition Zposition Xrotation Yrotation Zrotation
						JOINT mixamorig:LeftForeArm
						{
							OFFSET 27.841532 -0.000031 0.000026
							CHANNELS 6 Xposition Yposition Zposition Xrotation Yrotation Zrotation
							JOINT mixamorig:LeftHand
							{
								OFFSET 28.328846 -0.000061 0.000022
								CHANNELS 6 Xposition Yposition Zposition Xrotation Yrotation Zrotation
								JOINT mixamorig:LeftHandThumb1
								{
									OFFSET 2.466141 -1.576172 2.681732
									CHANNELS 6 Xposition Yposition Zposition Xrotation Yrotation Zrotation
									JOINT mixamorig:LeftHandThumb2
									{
										OFFSET 3.217812 -1.872070 1.916482
										CHANNELS 6 Xposition Yposition Zposition Xrotation Yrotation Zrotation
										JOINT mixamorig:LeftHandThumb3
										{
											OFFSET 2.656029 -1.528778 1.514513
											CHANNELS 6 Xposition Yposition Zposition Xrotation Yrotation Zrotation
											JOINT mixamorig:LeftHandThumb4
											{
												OFFSET 2.020889 -1.154053 1.115139
												CHANNELS 6 Xposition Yposition Zposition Xrotation Yrotation Zrotation
												End Site
												{
													OFFSET 190.885437 -115.081749 130.048782
												}
											}
										}
									}
								}
								JOINT mixamorig:LeftHandIndex1
								{
									OFFSET 9.109314 -0.518021 2.259871
									CHANNELS 6 Xposition Yposition Zposition Xrotation Yrotation Zrotation
									JOINT mixamorig:LeftHandIndex2
									{
										OFFSET 3.699989 0.000000 -0.000322
										CHANNELS 6 Xposition Yposition Zposition Xrotation Yrotation Zrotation
										JOINT mixamorig:LeftHandIndex3
										{
											OFFSET 2.850006 0.000000 0.000352
											CHANNELS 6 Xposition Yposition Zposition Xrotation Yrotation Zrotation
											JOINT mixamorig:LeftHandIndex4
											{
												OFFSET 2.774864 -0.000031 -0.000027
												CHANNELS 6 Xposition Yposition Zposition Xrotation Yrotation Zrotation
												End Site
												{
													OFFSET 277.486267 0.000000 -0.009857
												}
											}
										}
									}
								}
								JOINT mixamorig:LeftHandMiddle1
								{
									OFFSET 9.533394 0.000061 0.000044
									CHANNELS 6 Xposition Yposition Zposition Xrotation Yrotation Zrotation
									JOINT mixamorig:LeftHandMiddle2
									{
										OFFSET 3.699989 -0.000015 -0.000231
										CHANNELS 6 Xposition Yposition Zposition Xrotation Yrotation Zrotation
										JOINT mixamorig:LeftHandMiddle3
										{
											OFFSET 2.949997 -0.000015 -0.000059
											CHANNELS 6 Xposition Yposition Zposition Xrotation Yrotation Zrotation
											JOINT mixamorig:LeftHandMiddle4
											{
												OFFSET 2.952896 0.000031 0.000063
												CHANNELS 6 Xposition Yposition Zposition Xrotation Yrotation Zrotation
												End Site
												{
													OFFSET 295.289337 0.000000 0.022810
												}
											}
										}
									}
								}
								JOINT mixamorig:LeftHandRing1
								{
									OFFSET 9.104523 -0.042999 -1.865074
									CHANNELS 6 Xposition Yposition Zposition Xrotation Yrotation Zrotation
									JOINT mixamorig:LeftHandRing2
									{
										OFFSET 3.150009 -0.000031 0.000043
										CHANNELS 6 Xposition Yposition Zposition Xrotation Yrotation Zrotation
										JOINT mixamorig:LeftHandRing3
										{
											OFFSET 2.949982 -0.000015 0.000040
											CHANNELS 6 Xposition Yposition Zposition Xrotation Yrotation Zrotation
											JOINT mixamorig:LeftHandRing4
											{
												OFFSET 2.644348 0.000000 0.000057
												CHANNELS 6 Xposition Yposition Zposition Xrotation Yrotation Zrotation
												End Site
												{
													OFFSET 264.434631 0.000000 0.012105
												}
											}
										}
									}
								}
								JOINT mixamorig:LeftHandPinky1
								{
									OFFSET 8.077789 -0.486847 -3.806259
									CHANNELS 6 Xposition Yposition Zposition Xrotation Yrotation Zrotation
									JOINT mixamorig:LeftHandPinky2
									{
										OFFSET 3.599953 0.000031 0.014727
										CHANNELS 6 Xposition Yposition Zposition Xrotation Yrotation Zrotation
										JOINT mixamorig:LeftHandPinky3
										{
											OFFSET 2.100021 0.000015 0.007705
											CHANNELS 6 Xposition Yposition Zposition Xrotation Yrotation Zrotation
											JOINT mixamorig:LeftHandPinky4
											{
												OFFSET 2.125504 0.000031 0.007517
												CHANNELS 6 Xposition Yposition Zposition Xrotation Yrotation Zrotation
												End Site
												{
													OFFSET 212.550781 0.000000 0.625752
												}
											}
										}
									}
								}
							}
						}
					}
				}
			}
		}
	}
	JOINT mixamorig:RightUpLeg
	{
		OFFSET -8.207787 -6.751648 -1.599560
		CHANNELS 6 Xposition Yposition Zposition Xrotation Yrotation Zrotation
		JOINT mixamorig:RightLeg
		{
			OFFSET -0.000002 -44.370117 0.345942
			CHANNELS 6 Xposition Yposition Zposition Xrotation Yrotation Zrotation
			JOINT mixamorig:RightFoot
			{
				OFFSET 0.000003 -44.423679 -3.043532
				CHANNELS 6 Xposition Yposition Zposition Xrotation Yrotation Zrotation
				JOINT mixamorig:RightToeBase
				{
					OFFSET -0.000002 -8.728671 10.710558
					CHANNELS 6 Xposition Yposition Zposition Xrotation Yrotation Zrotation
					JOINT mixamorig:RightToe_End
					{
						OFFSET -0.000001 -0.000679 9.278119
						CHANNELS 6 Xposition Yposition Zposition Xrotation Yrotation Zrotation
						End Site
						{
							OFFSET 0.000000 -0.067690 927.812134
						}
					}
				}
			}
		}
	}
	JOINT mixamorig:LeftUpLeg
	{
		OFFSET 8.207793 -6.751686 -1.599556
		CHANNELS 6 Xposition Yposition Zposition Xrotation Yrotation Zrotation
		JOINT mixamorig:LeftLeg
		{
			OFFSET -0.000004 -44.370014 0.346954
			CHANNELS 6 Xposition Yposition Zposition Xrotation Yrotation Zrotation
			JOINT mixamorig:LeftFoot
			{
				OFFSET -0.000001 -44.423672 -3.044401
				CHANNELS 6 Xposition Yposition Zposition Xrotation Yrotation Zrotation
				JOINT mixamorig:LeftToeBase
				{
					OFFSET -0.000002 -8.728669 10.710558
					CHANNELS 6 Xposition Yposition Zposition Xrotation Yrotation Zrotation
					JOINT mixamorig:LeftToe_End
					{
						OFFSET -0.000003 -0.000679 9.278133
						CHANNELS 6 Xposition Yposition Zposition Xrotation Yrotation Zrotation
						End Site
						{
							OFFSET 0.000000 -0.068021 927.813477
						}
					}
				}
			}
		}
	}
}
MOTION
Frames: 3
Frame Time: 0.033333
0.000006 104.270477 1.554256 0.000010 0.000003 -0.000113 -0.000005 10.181587 0.131522 0.000001 -0.000003 0.000084 -0.000000 9.893967 -1.470711 0.000001 0.000000 -0.000000 -0.000000 9.220802 -1.370642 0.000000 -0.000000 -0.000000 0.000001 16.740433 -2.049030 0.000000 -0.000000 -0.000000 0.000000 9.617859 1.685014 0.000000 0.000000 0.000000 0.000002 22.037384 7.501101 0.000000 -0.000000 0.000000 -4.569968 11.014880 -2.160881 0.000008 0.000001 -0.000038 -10.592866 -0.524782 -2.231872 74.005161 36.101440 -27.598040 -27.841511 0.000008 0.000567 -47.547211 112.050517 66.344687 -28.328819 0.000011 0.000023 -0.000321 -0.000043 0.000003 -2.464421 -1.573757 2.682342 -47.677579 -166.889798 -9.118204 -3.215295 -1.872583 1.924653 153.653315 30.903918 0.079408 -2.654952 -1.527875 1.513060 144.124231 27.714934 -34.010056 -2.018838 -1.151981 1.108068 -0.000004 -0.000002 0.000004 -9.108382 -0.517557 2.260105 92.935659 17.159201 -18.096653 -3.700069 0.000290 0.001512 91.335605 15.527221 -15.864159 -2.850096 0.000355 -0.000269 91.661234 13.463338 -13.854692 -2.772170 -0.000000 -0.000018 -0.000000 -0.000001 -0.000001 -9.532567 0.000256 0.000179 77.931700 15.378057 -12.579222 -3.700054 0.000325 0.003899 79.255282 9.266033 -7.602188 -2.950061 0.000315 -0.001874 82.562452 11.519740 -10.115205 -2.946615 0.000013 -0.000156 0.000001 -0.000000 -0.000001 -9.103693 -0.042763 -1.864930 79.606244 16.009677 -13.329597 -3.379298 0.000316 -0.000887 80.256690 4.209694 -3.562503 -2.889740 0.000355 0.000575 85.293340 4.610006 -4.286993 -2.638806 -0.000015 0.000938 0.000002 -0.000000 0.000002 -8.076734 -0.486388 -3.806067 78.424983 16.873294 -13.676816 -3.600023 0.000283 -0.003563 82.073684 5.327356 -4.341322 -2.099997 0.000321 -0.005541 83.434381 3.585919 -3.007224 -2.115765 -0.000026 -0.003675 0.000002 -0.000000 -0.000005 4.570446 11.014691 -2.160851 -0.000018 0.000010 -0.000021 10.592525 -0.524542 -2.232379 65.849956 -68.631175 47.689556 27.841740 -0.000066 -0.000105 60.407935 -105.956274 75.326912 28.328831 -0.000030 0.000030 0.000018 -0.000087 0.000000 2.466139 -1.576179 2.681817 -35.731305 17.345303 8.042628 3.217827 -1.871987 1.916557 291.945371 30.982592 383.467611 2.656032 -1.528762 1.514611 251.311292 42.939890 412.722759 2.020895 -1.154055 1.115141 -0.000001 0.000006 0.000001 9.109282 -0.517804 2.260116 -104.908475 -8.654642 -11.234742 3.699945 0.000255 -0.000086 -122.049169 -9.323198 -16.773341 2.849960 0.000336 0.000537 -136.656840 -5.910587 -14.802125 2.774882 -0.000044 -0.000017 0.000003 -0.000001 -0.000001 9.533394 0.000264 0.000283 -109.557833 -3.804513 -5.377650 3.699982 0.000273 0.000009 -122.980766 -4.052145 -7.448981 2.949986 0.000329 0.000143 -136.618960 -3.634515 -9.126860 2.952866 -0.000015 0.000075 -0.000001 0.000000 -0.000000 9.104531 -0.042770 -1.864848 -114.402725 0.142488 0.218641 3.150008 0.000282 0.000272 -123.051609 0.081749 0.147895 2.949944 0.000318 0.000290 -126.794757 -3.834851 -7.651309 2.644317 0.000016 0.000065 0.000003 -0.000000 0.000000 8.077789 -0.486595 -3.806044 -122.610474 2.250216 3.218149 3.600016 0.000290 0.014936 -126.388033 10.968229 20.532445 2.100074 0.000237 0.007902 -125.163326 13.535166 24.827394 2.125511 -0.000019 0.007503 0.000002 -0.000001 -0.000003 -8.207786 -6.751667 -1.599560 -0.077001 -0.000003 0.000080 -0.000002 -44.370110 0.345938 0.153719 -0.000000 -0.000000 0.000000 -44.423679 -3.043532 -0.076700 0.000000 -0.000002 -0.000006 -8.728667 10.710559 -0.000009 -0.000000 -0.000000 -0.000001 -0.000679 9.278123 0.000000 -0.000000 -0.000000 8.207792 -6.751710 -1.599556 -0.074518 -0.000003 0.000081 -0.000002 -44.370014 0.346960 0.148822 0.000002 0.000000 -0.000001 -44.423664 -3.044403 -0.074314 0.000000 -0.000002 -0.000004 -8.728671 10.710558 0.000007 -0.000000 -0.000000 0.000000 -0.000680 9.278137 -0.000000 0.000000 -0.000001 
0.000006 104.270477 1.554256 0.000010 0.000003 -0.000113 -0.000005 10.181587 0.131522 0.000001 -0.000003 0.000084 -0.000000 9.893967 -1.470711 0.000001 0.000000 -0.000000 -0.000000 9.220802 -1.370642 0.000000 -0.000000 -0.000000 0.000001 16.740433 -2.049030 0.000000 -0.000000 -0.000000 0.000000 9.617859 1.685014 0.000000 0.000000 0.000000 0.000002 22.037384 7.501101 0.000000 -0.000000 0.000000 -4.569968 11.014880 -2.160881 0.000008 0.000001 -0.000038 -10.592859 -0.524797 -2.231850 74.017442 40.604163 -31.164138 -27.841513 0.000025 0.000565 -47.569614 111.116297 65.455315 -28.328821 0.000009 0.000028 -0.000320 -0.000045 0.000007 -2.464422 -1.573758 2.682338 -49.389071 -168.681125 -13.905411 -3.215290 -1.872583 1.924637 152.811317 31.120258 2.092571 -2.654960 -1.527892 1.513067 143.828389 27.818420 -33.234393 -2.018816 -1.151997 1.108080 -0.000001 -0.000001 0.000004 -9.108377 -0.517548 2.260101 92.585618 16.247044 -17.035320 -3.700071 0.000325 0.001514 91.502910 14.504079 -14.860878 -2.850111 0.000358 -0.000276 91.349211 12.607336 -12.904299 -2.772171 -0.000015 -0.000019 0.000000 0.000001 -0.000000 -9.532589 0.000262 0.000154 78.035663 14.761533 -12.099065 -3.700051 0.000307 0.003888 79.274843 9.120027 -7.483770 -2.950040 0.000323 -0.001851 82.340444 11.292168 -9.876489 -2.946622 0.000029 -0.000156 0.000002 -0.000001 -0.000001 -9.103687 -0.042759 -1.864918 79.828498 15.686773 -13.110220 -3.379316 0.000324 -0.000886 79.775715 4.253070 -3.568559 -2.889745 0.000350 0.000580 85.196986 4.473665 -4.154288 -2.638818 -0.000019 0.000939 -0.000005 -0.000000 -0.000002 -8.076741 -0.486387 -3.806064 78.196466 16.359019 -13.201472 -3.600006 0.000267 -0.003565 81.388596 4.728614 -3.776643 -2.099992 0.000319 -0.005548 83.130471 3.034523 -2.503788 -2.115764 -0.000071 -0.003678 0.000000 -0.000003 -0.000005 4.570446 11.014691 -2.160851 -0.000018 0.000010 -0.000021 10.592533 -0.524545 -2.232383 67.775400 -70.312440 50.631813 27.841732 -0.000044 -0.000097 60.946727 -105.819718 75.787868 28.328840 -0.000013 0.000031 0.000019 -0.000089 -0.000000 2.466138 -1.576174 2.681833 -35.925255 17.577302 8.096197 3.217845 -1.871990 1.916532 290.829919 30.331064 383.927611 2.656024 -1.528780 1.514612 247.593920 42.125660 415.027101 2.020887 -1.154085 1.115130 0.000001 0.000006 0.000004 9.109276 -0.517800 2.260125 -104.753115 -9.219280 -11.933182 3.699942 0.000269 -0.000094 -121.898386 -10.196464 -18.268587 2.849965 0.000347 0.000553 -135.962879 -6.299691 -15.496051 2.774879 -0.000030 -0.000035 0.000004 0.000000 0.000000 9.533392 0.000273 0.000282 -109.437136 -4.561366 -6.434074 3.699973 0.000278 -0.000011 -124.260511 -4.609077 -8.700307 2.949973 0.000321 0.000123 -139.744523 -3.891557 -10.598021 2.952873 -0.000045 0.000061 0.000000 -0.000000 0.000000 9.104540 -0.042794 -1.864835 -114.472475 -0.488348 -0.761260 3.150017 0.000269 0.000258 -124.360984 1.405671 2.660559 2.949975 0.000316 0.000255 -133.391067 -1.220120 -2.835331 2.644326 0.000015 0.000055 -0.000004 -0.000000 -0.000000 8.077796 -0.486610 -3.806034 -120.623422 2.122172 2.867888 3.600022 0.000266 0.014921 -121.925898 11.489060 19.643655 2.100062 0.000200 0.007913 -120.710247 14.901337 25.015897 2.125494 -0.000017 0.007524 -0.000003 -0.000000 -0.000002 -8.207786 -6.751667 -1.599560 -0.077001 -0.000003 0.000080 -0.000002 -44.370110 0.345938 0.153719 -0.000000 -0.000000 0.000000 -44.423679 -3.043532 -0.076700 0.000000 -0.000002 -0.000006 -8.728667 10.710559 -0.000009 -0.000000 -0.000000 -0.000001 -0.000679 9.278123 0.000000 -0.000000 -0.000000 8.207792 -6.751710 -1.599556 -0.074518 -0.000003 0.000081 -0.000002 -44.370014 0.346960 0.148822 0.000002 0.000000 -0.000001 -44.423664 -3.044403 -0.074314 0.000000 -0.000002 -0.000004 -8.728671 10.710558 0.000007 -0.000000 -0.000000 0.000000 -0.000680 9.278137 -0.000000 0.000000 -0.000001 
0.000006 104.270477 1.554256 0.000010 0.000003 -0.000113 -0.000005 10.181587 0.131522 0.000001 -0.000003 0.000084 -0.000000 9.893967 -1.470711 0.000001 0.000000 -0.000000 -0.000000 9.220802 -1.370642 0.000000 -0.000000 -0.000000 0.000001 16.740433 -2.049030 0.000000 -0.000000 -0.000000 0.000000 9.617859 1.685014 0.000000 0.000000 0.000000 0.000002 22.037384 7.501101 0.000000 -0.000000 0.000000 -4.569968 11.014880 -2.160881 0.000008 0.000001 -0.000038 -10.592862 -0.524788 -2.231846 74.080601 39.132042 -30.028667 -27.841513 -0.000008 0.000563 -47.629836 110.970391 65.387286 -28.328821 0.000022 0.000029 -0.000319 -0.000043 0.000004 -2.464436 -1.573727 2.682325 -50.086477 -170.208410 -16.020038 -3.215288 -1.872584 1.924644 153.231565 30.756151 -0.618440 -2.654959 -1.527883 1.513072 143.795754 27.792081 -33.702653 -2.018831 -1.152000 1.108071 -0.000001 -0.000006 0.000004 -9.108381 -0.517550 2.260102 92.714251 16.296024 -17.124363 -3.700077 0.000310 0.001481 91.595904 14.270065 -14.644400 -2.850075 0.000360 -0.000281 91.437559 12.366998 -12.677763 -2.772154 -0.000000 -0.000018 -0.000002 -0.000000 -0.000001 -9.532578 0.000257 0.000176 78.345316 14.880240 -12.262939 -3.700041 0.000311 0.003894 79.420586 9.280790 -7.636731 -2.950056 0.000324 -0.001872 82.587280 11.385874 -10.001773 -2.946617 0.000000 -0.000154 0.000003 -0.000001 -0.000003 -9.103683 -0.042761 -1.864931 80.478992 16.071116 -13.587713 -3.379316 0.000322 -0.000893 79.681581 4.553089 -3.813110 -2.889733 0.000343 0.000573 85.302731 4.575194 -4.255592 -2.638812 -0.000014 0.000940 -0.000002 0.000001 0.000001 -8.076738 -0.486388 -3.806067 79.002216 16.705956 -13.678071 -3.600021 0.000286 -0.003566 81.162824 4.776457 -3.802408 -2.100029 0.000323 -0.005541 82.747462 3.070221 -2.518324 -2.115763 -0.000051 -0.003676 -0.000001 -0.000003 -0.000002 4.570446 11.014691 -2.160851 -0.000018 0.000010 -0.000021 10.592533 -0.524539 -2.232384 68.096645 -69.909848 50.568829 27.841734 -0.000067 -0.000098 60.946160 -105.805088 75.772493 28.328840 -0.000029 0.000044 0.000020 -0.000089 -0.000000 2.466140 -1.576205 2.681823 -35.744094 16.980055 8.085033 3.217819 -1.871991 1.916558 290.744323 30.311024 383.967718 2.656038 -1.528796 1.514593 249.308462 42.131264 413.776767 2.020914 -1.154096 1.115169 -0.000004 0.000002 0.000002 9.109285 -0.517814 2.260103 -104.485051 -9.295753 -11.974359 3.699944 0.000288 -0.000087 -123.208403 -9.857457 -18.146583 2.849958 0.000344 0.000544 -139.067515 -5.583583 -14.885912 2.774891 -0.000046 -0.000030 0.000001 0.000001 0.000001 9.533392 0.000257 0.000269 -109.690782 -4.678445 -6.630305 3.699980 0.000258 -0.000010 -125.433856 -4.115825 -7.966681 2.949981 0.000346 0.000131 -143.058326 -2.766288 -8.275531 2.952867 -0.000046 0.000056 0.000002 -0.000001 -0.000001 9.104528 -0.042780 -1.864841 -114.148348 -0.476897 -0.738861 3.150018 0.000276 0.000239 -124.482848 2.279754 4.326991 2.949990 0.000292 0.000225 -135.656313 0.388743 0.950247 2.644318 0.000031 0.000047 -0.000001 -0.000000 -0.000000 8.077787 -0.486625 -3.806027 -120.124777 1.920292 2.492018 3.600021 0.000284 0.014915 -122.152346 11.414499 19.602001 2.100068 0.000208 0.007912 -121.682784 15.699593 26.870634 2.125508 -0.000002 0.007509 -0.000002 0.000002 0.000001 -8.207786 -6.751667 -1.599560 -0.077001 -0.000003 0.000080 -0.000002 -44.370110 0.345938 0.153719 -0.000000 -0.000000 0.000000 -44.423679 -3.043532 -0.076700 0.000000 -0.000002 -0.000006 -8.728667 10.710559 -0.000009 -0.000000 -0.000000 -0.000001 -0.000679 9.278123 0.000000 -0.000000 -0.000000 8.207792 -6.751710 -1.599556 -0.074518 -0.000003 0.000081 -0.000002 -44.370014 0.346960 0.148822 0.000002 0.000000 -0.000001 -44.423664 -3.044403 -0.074314 0.000000 -0.000002 -0.000004 -8.728671 10.710558 0.000007 -0.000000 -0.000000 0.000000 -0.000680 9.278137 -0.000000 0.000000 -0.000001 
